<?xml version="1.0" encoding="UTF-8" standalone="no"?>
<svg width="16px" height="16px" viewBox="0 0 16 16" version="1.1" xmlns="http://www.w3.org/2000/svg" xmlns:xlink="http://www.w3.org/1999/xlink" xmlns:sketch="http://www.bohemiancoding.com/sketch/ns">
    <!-- Generator: Sketch 3.3.2 (12043) - http://www.bohemiancoding.com/sketch -->
    <title>behance</title>
    <desc>Created with Sketch.</desc>
    <defs></defs>
    <g id="Page-1" stroke="none" stroke-width="1" fill="none" fill-rule="evenodd" sketch:type="MSPage">
        <g id="Icons" sketch:type="MSArtboardGroup" transform="translate(-480.000000, -376.000000)" fill="#323232">
            <g id="16px" sketch:type="MSLayerGroup" transform="translate(440.000000, 100.000000)">
                <g id="Round-[export]" transform="translate(40.000000, 186.000000)" sketch:type="MSShapeGroup">
                    <path d="M0,98 C0,93.581722 3.59071231,90 8,90 C12.418278,90 16,93.5907123 16,98 C16,102.418278 12.4092877,106 8,106 C3.581722,106 0,102.409288 0,98 Z M6.12850595,99.9643036 L4.38466712,99.9643036 L4.38466712,98.285882 L6.21275975,98.285882 C6.21275975,98.285882 6.87485446,98.2771856 6.87485446,99.148348 C6.87485446,99.8747333 6.39056237,99.9570154 6.12850595,99.9643036 Z M4.38466712,95.9162132 L6.21275975,95.9162132 C6.21275975,95.9162132 6.65705505,95.9162132 6.65705505,96.5696114 C6.65705505,97.2230096 6.39566759,97.3177556 6.0994942,97.3177556 L4.38466712,97.3177556 L4.38466712,95.9162132 M7.03167286,97.667305 C7.03167286,97.667305 7.98997618,97.5961135 7.98997618,96.4722953 C7.98997618,95.3484419 7.20591943,94.8 6.21275975,94.8 L2.94467712,94.8 L2.94467712,101.080517 L6.21275975,101.080517 C6.21275975,101.080517 8.20777559,101.143399 8.20777559,99.2267572 C8.20777559,99.2267572 8.29488127,97.667305 7.03167286,97.667305 Z M11.8347411,98.272362 L9.7716673,98.272362 C9.7716673,98.272362 9.90672688,97.3042355 10.8768954,97.3042355 C11.847064,97.3042355 11.8347411,98.272362 11.8347411,98.272362 Z M10.85232,96.3843798 C8.43716179,96.3843798 8.43934471,98.7973903 8.43934471,98.7973903 C8.43934471,98.7973903 8.27358338,101.198219 10.8523904,101.198219 C10.8523904,101.198219 13.0014431,101.32099 13.0014431,99.5281062 L11.896215,99.5281062 C11.896215,99.5281062 11.933043,100.203404 10.8892184,100.203404 C10.8892184,100.203404 9.78395505,100.277342 9.78395505,99.1106045 L13.0382712,99.1106045 C13.0382712,99.1106045 13.3943341,96.3843798 10.85232,96.3843798 Z M9.49344699,95.1520844 L12.0845769,95.1520844 L12.0845769,95.925649 L9.49344699,95.925649 L9.49344699,95.1520844 Z" id="behance"></path>
                </g>
            </g>
        </g>
    </g>
</svg>