<?xml version="1.0" encoding="UTF-8" standalone="no"?>
<svg width="16px" height="16px" viewBox="0 0 16 16" version="1.1" xmlns="http://www.w3.org/2000/svg" xmlns:xlink="http://www.w3.org/1999/xlink" xmlns:sketch="http://www.bohemiancoding.com/sketch/ns">
    <!-- Generator: Sketch 3.3.2 (12043) - http://www.bohemiancoding.com/sketch -->
    <title>email</title>
    <desc>Created with Sketch.</desc>
    <defs></defs>
    <g id="Page-1" stroke="none" stroke-width="1" fill="none" fill-rule="evenodd" sketch:type="MSPage">
        <g id="Icons" sketch:type="MSArtboardGroup" transform="translate(-480.000000, -406.000000)" fill="#323232">
            <g id="16px" sketch:type="MSLayerGroup" transform="translate(440.000000, 100.000000)">
                <g id="Round-[export]" transform="translate(40.000000, 186.000000)" sketch:type="MSShapeGroup">
                    <path d="M0,128 C0,123.581722 3.59071231,120 8,120 C12.418278,120 16,123.590712 16,128 C16,132.418278 12.4092877,136 8,136 C3.581722,136 0,132.409288 0,128 Z M11.5534409,125.835218 L8.10452273,128.626805 C8.07399545,128.651359 8.03683182,128.663636 8,128.663636 C7.96316818,128.663636 7.92600455,128.651359 7.89547727,128.626805 L4.44689091,125.835218 C4.38683182,125.935095 4.35,126.050236 4.35,126.175 L4.35,129.825 C4.35,130.190995 4.64764091,130.488636 5.01363636,130.488636 L10.9863636,130.488636 C11.3523591,130.488636 11.65,130.190995 11.65,129.825 L11.65,126.175 C11.65,126.050236 11.6131682,125.935095 11.5534409,125.835218 Z M11.3142,125.601618 C11.2169773,125.545541 11.10615,125.511364 10.9863636,125.511364 L5.01363636,125.511364 C4.89385,125.511364 4.78302273,125.545541 4.6858,125.601618 L8,128.284368 L11.3142,125.601618 Z" id="email"></path>
                </g>
            </g>
        </g>
    </g>
</svg>