<?xml version="1.0" encoding="UTF-8" standalone="no"?>
<svg width="16px" height="16px" viewBox="0 0 16 16" version="1.1" xmlns="http://www.w3.org/2000/svg" xmlns:xlink="http://www.w3.org/1999/xlink" xmlns:sketch="http://www.bohemiancoding.com/sketch/ns">
    <!-- Generator: Sketch 3.3.2 (12043) - http://www.bohemiancoding.com/sketch -->
    <title>linkedin</title>
    <desc>Created with Sketch.</desc>
    <defs></defs>
    <g id="Page-1" stroke="none" stroke-width="1" fill="none" fill-rule="evenodd" sketch:type="MSPage">
        <g id="Icons" sketch:type="MSArtboardGroup" transform="translate(-480.000000, -346.000000)" fill="#323232">
            <g id="16px" sketch:type="MSLayerGroup" transform="translate(440.000000, 100.000000)">
                <g id="Round-[export]" transform="translate(40.000000, 186.000000)" sketch:type="MSShapeGroup">
                    <path d="M0,68 C0,63.581722 3.59071231,60 8,60 C12.418278,60 16,63.5907123 16,68 C16,72.418278 12.4092877,76 8,76 C3.581722,76 0,72.4092877 0,68 Z M11.6065785,71.6 L10.1119907,71.6 L10.1119907,69.2611198 C10.1119907,68.7034837 10.1024728,67.9860031 9.33544323,67.9860031 C8.55749611,67.9860031 8.43880249,68.5937481 8.43880249,69.2213686 L8.43880249,71.6 L6.94589425,71.6 L6.94589425,66.7906687 L8.37861586,66.7906687 L8.37861586,67.4482426 L8.39933126,67.4482426 C8.59864697,67.0700467 9.0862986,66.6714152 9.81329705,66.6714152 C11.3269207,66.6714152 11.6065785,67.667154 11.6065785,68.9624261 L11.6065785,71.6 Z M5.26066874,66.1336547 C4.78057543,66.1336547 4.39342146,65.745381 4.39342146,65.2666874 C4.39342146,64.7882737 4.78057543,64.4 5.26066874,64.4 C5.73880249,64.4 6.12679627,64.7882737 6.12679627,65.2666874 C6.12679627,65.745381 5.73880249,66.1336547 5.26066874,66.1336547 L5.26066874,66.1336547 Z M4.51211509,66.7906687 L6.00838258,66.7906687 L6.00838258,71.6 L4.51211509,71.6 L4.51211509,66.7906687 Z" id="linkedin"></path>
                </g>
            </g>
        </g>
    </g>
</svg>