<?xml version="1.0" encoding="UTF-8" standalone="no"?>
<svg width="16px" height="16px" viewBox="0 0 16 16" version="1.1" xmlns="http://www.w3.org/2000/svg" xmlns:xlink="http://www.w3.org/1999/xlink" xmlns:sketch="http://www.bohemiancoding.com/sketch/ns">
    <!-- Generator: Sketch 3.3.2 (12043) - http://www.bohemiancoding.com/sketch -->
    <title>medium</title>
    <desc>Created with Sketch.</desc>
    <defs></defs>
    <g id="Page-1" stroke="none" stroke-width="1" fill="none" fill-rule="evenodd" sketch:type="MSPage">
        <g id="Icons" sketch:type="MSArtboardGroup" transform="translate(-480.000000, -316.000000)" fill="#323232">
            <g id="16px" sketch:type="MSLayerGroup" transform="translate(440.000000, 100.000000)">
                <g id="Round-[export]" transform="translate(40.000000, 186.000000)" sketch:type="MSShapeGroup">
                    <path d="M0,38 C0,33.581722 3.59071231,30 8,30 C12.418278,30 16,33.5907123 16,38 C16,42.418278 12.4092877,46 8,46 C3.581722,46 0,42.4092877 0,38 Z M11.7257373,35.7599917 C11.6068757,35.7599917 11.469734,35.9154134 11.469734,36.0251764 L11.469734,40.0022023 C11.469734,40.112048 11.6068757,40.2764856 11.7257373,40.2764856 L12.0457621,40.2764856 L12.0457621,41.2 L9.17488562,41.2 L9.17488562,40.2764856 L9.75091374,40.2764856 L9.75091374,36.0982966 L9.72345232,36.0982966 L8.3062941,41.2 L7.20907798,41.2 L5.81028252,36.0982966 L5.7828211,36.0982966 L5.7828211,40.2764856 L6.38631065,40.2764856 L6.38631065,41.2 L3.95423786,41.2 L3.95423786,40.2764856 L4.26508129,40.2764856 C4.39312431,40.2764856 4.53026598,40.112048 4.53026598,40.0022023 L4.53026598,36.0251764 C4.53026598,35.9154134 4.39312431,35.7599917 4.26508129,35.7599917 L3.95423786,35.7599917 L3.95423786,34.8 L6.98971748,34.8 L7.98626929,38.5120066 L8.01373071,38.5120066 L9.0194639,34.8 L12.0457621,34.8 L12.0457621,35.7599917 L11.7257373,35.7599917 Z" id="medium"></path>
                </g>
            </g>
        </g>
    </g>
</svg>