<?xml version="1.0" encoding="UTF-8" standalone="no"?>
<svg width="16px" height="16px" viewBox="0 0 16 16" version="1.1" xmlns="http://www.w3.org/2000/svg" xmlns:xlink="http://www.w3.org/1999/xlink" xmlns:sketch="http://www.bohemiancoding.com/sketch/ns">
    <!-- Generator: Sketch 3.3.2 (12043) - http://www.bohemiancoding.com/sketch -->
    <title>twitter</title>
    <desc>Created with Sketch.</desc>
    <defs></defs>
    <g id="Page-1" stroke="none" stroke-width="1" fill="none" fill-rule="evenodd" sketch:type="MSPage">
        <g id="Icons" sketch:type="MSArtboardGroup" transform="translate(-480.000000, -286.000000)" fill="#323232">
            <g id="16px" sketch:type="MSLayerGroup" transform="translate(440.000000, 100.000000)">
                <g id="Round-[export]" transform="translate(40.000000, 186.000000)" sketch:type="MSShapeGroup">
                    <path d="M0,8 C0,3.581722 3.59071231,0 8,0 C12.418278,0 16,3.59071231 16,8 C16,12.418278 12.4092877,16 8,16 C3.581722,16 0,12.4092877 0,8 Z M11.9900444,5.62986667 C11.7006222,5.75893333 11.4567111,5.7632 11.1978667,5.63555556 C11.5317333,5.43573333 11.5470222,5.29564444 11.6675556,4.91768889 C11.3553778,5.10293333 11.0094222,5.23768889 10.6414222,5.31057778 C10.3470222,4.99662222 9.92675556,4.8 9.4624,4.8 C8.56995556,4.8 7.84675556,5.52391111 7.84675556,6.41564444 C7.84675556,6.54257778 7.86097778,6.66595556 7.88835556,6.784 C6.54542222,6.7168 5.35502222,6.07324444 4.55822222,5.09546667 C4.4192,5.3344 4.3392,5.61208889 4.3392,5.90826667 C4.3392,6.46897778 4.62471111,6.9632 5.05813333,7.25297778 C4.79324444,7.24444444 4.54435556,7.17191111 4.3264,7.05102222 C4.32604444,7.05777778 4.32604444,7.06417778 4.32604444,7.07128889 C4.32604444,7.85422222 4.8832,8.50702222 5.6224,8.65564444 C5.3856,8.72 5.136,8.72995556 4.89244444,8.68337778 C5.09831111,9.32515556 5.69493333,9.79235556 6.40177778,9.80551111 C5.71057778,10.3473778 4.85333333,10.5731556 4.00995556,10.4743111 C4.72497778,10.9326222 5.57404444,11.2 6.4864,11.2 C9.45848889,11.2 11.0830222,8.73813333 11.0830222,6.60302222 C11.0830222,6.53262222 11.0819556,6.46364444 11.0787556,6.39395556 C11.3941333,6.1664 11.7735111,5.95413333 11.9900444,5.62986667 Z" id="twitter"></path>
                </g>
            </g>
        </g>
    </g>
</svg>